HIERARCHY
ROOT Hips
{
	OFFSET 0 0 0
	CHANNELS 6 Xposition Yposition Zposition Yrotation Xrotation Zrotation
	JOINT Spine
	{
		OFFSET -0 8.73536 -2.7844
		CHANNELS 3 Yrotation Xrotation Zrotation
		JOINT Spine1
		{
			OFFSET -0 11.2677 0
			CHANNELS 3 Yrotation Xrotation Zrotation
			JOINT Spine2
			{
				OFFSET -0 11.2677 0
				CHANNELS 3 Yrotation Xrotation Zrotation
				JOINT Spine3
				{
					OFFSET -0 11.2677 0
					CHANNELS 3 Yrotation Xrotation Zrotation
					JOINT Neck
					{
						OFFSET -0 13.4982 3.7844
						CHANNELS 3 Yrotation Xrotation Zrotation
						JOINT Head
						{
							OFFSET -0 10.9192 0
							CHANNELS 3 Yrotation Xrotation Zrotation
							End Site
							{
								OFFSET 0 15 0
							}
						}
					}
					JOINT LeftShoulder
					{
						OFFSET 1.81987 1.10026 3.63973
						CHANNELS 3 Yrotation Xrotation Zrotation
						JOINT LeftArm
						{
							OFFSET 16.8433 0 0
							CHANNELS 3 Yrotation Xrotation Zrotation
							JOINT LeftForeArm
							{
								OFFSET 29.2679 0 0
								CHANNELS 3 Yrotation Xrotation Zrotation
								JOINT LeftHand
								{
									OFFSET 23.0344 0 0
									CHANNELS 3 Yrotation Xrotation Zrotation
									End Site
									{
										OFFSET 15 0 0
									}
								}
							}
						}
					}
					JOINT RightShoulder
					{
						OFFSET -1.81987 1.10026 3.63973
						CHANNELS 3 Yrotation Xrotation Zrotation
						JOINT RightArm
						{
							OFFSET -16.8433 0 0
							CHANNELS 3 Yrotation Xrotation Zrotation
							JOINT RightForeArm
							{
								OFFSET -29.2679 0 0
								CHANNELS 3 Yrotation Xrotation Zrotation
								JOINT RightHand
								{
									OFFSET -23.0344 0 0
									CHANNELS 3 Yrotation Xrotation Zrotation
									End Site
									{
										OFFSET -15 0 0
									}
								}
							}
						}
					}
				}
			}
		}
	}
	JOINT LeftUpLeg
	{
		OFFSET 10.9192 -3.63973 2
		CHANNELS 3 Yrotation Xrotation Zrotation
		JOINT LeftLeg
		{
			OFFSET -0 -38.6359 2.54781
			CHANNELS 3 Yrotation Xrotation Zrotation
			JOINT LeftFoot
			{
				OFFSET -0 -42.9088 -2.54781
				CHANNELS 3 Yrotation Xrotation Zrotation
				JOINT LeftToeBase
				{
					OFFSET -0 -7.0265 16.3788
					CHANNELS 3 Yrotation Xrotation Zrotation
					End Site
					{
						OFFSET 0 0 5
					}
				}
			}
		}
	}
	JOINT RightUpLeg
	{
		OFFSET -10.9192 -3.63973 2
		CHANNELS 3 Yrotation Xrotation Zrotation
		JOINT RightLeg
		{
			OFFSET -0 -38.6359 2.54781
			CHANNELS 3 Yrotation Xrotation Zrotation
			JOINT RightFoot
			{
				OFFSET -0 -42.9088 -2.54781
				CHANNELS 3 Yrotation Xrotation Zrotation
				JOINT RightToeBase
				{
					OFFSET -0 -7.0265 16.3788
					CHANNELS 3 Yrotation Xrotation Zrotation
					End Site
					{
						OFFSET 0 0 5
					}
				}
			}
		}
	}
}
MOTION
Frames: 15
Frame Time: 0.00833333
-111.462683 93.587085 87.471387 49.624421 2.634557 6.844684 7.979777 -0.167486 0.619912 6.347068 0.002552 -1.613196 1.014945 -0.560060 -3.830655 -0.393966 -1.095759 -6.006700 -5.438665 13.864897 -5.742541 -0.421856 5.162817 8.449374 18.821271 7.966060 7.549802 -58.716420 -5.473545 -40.301122 -19.826307 -1.295034 8.044734 24.580118 -5.271222 3.321824 9.244896 -7.666318 -32.473239 33.966517 -5.457243 -21.976869 60.832858 -5.756184 -0.504999 -3.091701 -22.396852 61.201034 25.289869 -21.972322 -6.523007 0.000000 1.913208 0.000000 -9.646192 40.798012 -11.330917 0.000000 -14.147373 0.000000 -15.698411 10.100055 -11.875435 0.000000 5.995383 0.000000 -19.329354 -12.546320 16.254147 0.000000 -4.415410 0.000000
-111.318994 93.594519 87.523370 49.562438 2.813604 6.838603 7.983910 -0.176162 0.370129 6.357766 0.055006 -1.615282 0.952840 -0.411862 -3.789367 -0.509212 -0.847624 -5.681022 -5.601184 12.879013 -6.133991 -0.440185 5.373657 8.954741 19.384516 8.150784 7.697599 -58.201066 -6.689432 -42.545536 -21.020078 -4.104775 9.555413 24.656807 -4.637876 3.700805 9.847010 -7.912161 -32.555093 34.339407 -6.071395 -22.420280 57.998914 -5.740155 -1.618130 -2.836632 -21.026768 61.007533 25.502724 -22.136397 -6.620125 0.000000 2.238367 0.000000 -9.703051 40.290728 -11.299275 0.000000 -14.125020 0.000000 -15.723787 9.939856 -11.921328 0.000000 6.054225 0.000000 -19.184702 -12.466038 16.382931 0.000000 -4.544363 0.000000
-111.180798 93.589221 87.559021 49.530479 3.003822 6.822866 8.025395 -0.283719 0.268492 6.323048 0.274348 -1.805108 0.907994 -0.226722 -3.722250 -0.645613 -0.724622 -5.417419 -5.676826 11.836321 -6.211690 -0.504804 5.719406 9.076119 19.808428 8.419159 7.849260 -57.227828 -8.160634 -44.814299 -22.328572 -6.827644 11.033481 24.119400 -3.393762 4.546214 10.419144 -8.085204 -32.456591 34.757943 -6.755247 -22.909327 55.317280 -5.810629 -2.892150 -3.033266 -19.242078 60.298464 25.855396 -22.274632 -6.794737 0.000000 2.483801 0.000000 -9.916163 39.848777 -11.174699 0.000000 -14.199331 0.000000 -15.840607 9.725126 -11.978429 0.000000 6.160127 0.000000 -18.940901 -12.422430 16.545832 0.000000 -4.594467 0.000000
-111.040564 93.604248 87.562097 49.395584 3.148578 6.817491 7.985753 -0.235842 0.113087 6.318886 0.360529 -1.833241 0.917861 -0.167492 -3.648202 -0.791480 -0.306741 -5.126759 -5.643846 10.763911 -6.647217 -0.492345 5.839227 9.410909 20.181373 9.086394 7.188023 -56.405740 -8.570557 -46.344465 -24.763886 -10.882891 13.151345 22.856466 -0.777259 5.440908 11.165026 -8.349463 -32.304693 35.397405 -7.494849 -23.537662 52.439850 -5.608029 -4.421004 -3.057419 -17.664294 59.607499 26.086131 -22.279705 -6.919186 0.000000 2.594381 0.000000 -9.815283 39.445164 -10.860931 0.000000 -14.222885 0.000000 -15.851239 9.482504 -12.065647 0.000000 6.346394 0.000000 -18.733791 -12.310668 16.690584 0.000000 -4.682365 0.000000
-110.874719 93.641058 87.543420 49.135166 3.324148 6.826785 7.965289 -0.194778 0.047473 6.345234 0.356491 -1.865395 1.097277 -0.068307 -3.623433 -0.770243 0.223848 -5.236980 -5.704283 9.914022 -6.576232 -0.624380 5.670909 9.497404 20.059934 9.892404 6.270568 -55.417624 -8.769034 -47.363666 -26.652815 -12.058623 15.221599 21.517148 -0.020560 5.565617 11.337004 -8.843420 -31.596302 36.984176 -8.793468 -24.365102 49.199489 -5.387530 -5.580909 -2.819719 -15.634601 58.688358 26.309982 -22.189297 -7.040195 0.000000 2.551306 0.000000 -9.540430 39.069821 -10.566980 0.000000 -14.206411 0.000000 -15.749441 9.154733 -12.183672 0.000000 6.584612 0.000000 -18.524851 -12.142911 16.776900 0.000000 -4.748399 0.000000
-110.726843 93.696313 87.513049 48.877952 3.560702 6.796220 7.982659 -0.239126 0.225600 6.326333 0.430089 -1.988471 1.064190 0.078628 -3.785702 -0.872153 0.608207 -5.279969 -5.573650 8.996182 -6.634199 -0.674675 5.697741 9.338767 20.036638 11.082341 4.603539 -53.788938 -8.756686 -47.473714 -28.570626 -11.952196 16.659283 19.604608 0.834099 6.066886 11.713763 -9.587769 -30.705205 39.429140 -10.219807 -25.142753 45.618816 -4.375043 -7.055309 -3.135943 -14.020143 58.080863 26.309837 -22.151080 -7.081441 0.000000 2.372371 0.000000 -9.071328 38.845074 -10.275385 0.000000 -14.203457 0.000000 -15.600511 8.711233 -12.223368 0.000000 6.920253 0.000000 -18.356732 -11.952197 16.881173 0.000000 -4.796308 0.000000
-110.545349 93.756561 87.470233 48.522770 3.715260 6.897076 7.980313 -0.212287 0.211595 6.350766 0.501454 -2.016676 0.979135 0.281719 -3.829022 -1.026268 0.934405 -5.175243 -5.352176 7.986438 -7.064954 -0.644879 5.990063 9.026366 19.666352 12.428181 1.875652 -51.547904 -7.815865 -46.860464 -30.971531 -9.777950 17.182034 18.259464 -0.290663 7.250517 12.224224 -10.471932 -29.933770 42.575788 -12.082983 -26.045000 42.224669 -3.104650 -8.406538 -4.567115 -12.689202 57.650923 26.344138 -21.842724 -7.186232 0.000000 2.007178 0.000000 -8.563581 38.659218 -9.959256 0.000000 -14.159531 0.000000 -15.660738 8.326411 -12.506896 0.000000 7.136874 0.000000 -17.909016 -11.779387 16.935577 0.000000 -4.811898 0.000000
-110.330554 93.817609 87.448065 48.035962 3.741668 7.018797 7.964587 0.001579 0.260642 6.279149 0.487273 -2.114370 1.185394 0.526793 -4.147566 -0.743848 0.867404 -4.974351 -5.551380 7.761069 -6.852086 -0.881104 6.006995 8.093597 18.670635 13.771794 -0.795439 -49.999360 -5.349974 -45.910004 -33.202853 -7.285620 17.266201 16.992383 -2.703071 9.556110 12.274919 -11.153895 -28.400446 46.208357 -14.193866 -27.258251 39.051888 -2.356508 -9.718321 -4.721706 -10.255569 56.252815 26.512680 -21.324362 -7.257711 0.000000 1.605758 0.000000 -8.051829 38.437910 -9.648772 0.000000 -14.155082 0.000000 -15.702641 8.157081 -12.878113 0.000000 7.176550 0.000000 -17.417029 -11.530064 16.994689 0.000000 -4.928349 0.000000
-110.138342 93.872858 87.412946 47.553060 3.780926 7.107065 7.952352 0.265860 0.344623 6.251803 0.406315 -2.187340 1.424296 0.554520 -4.416684 -0.507548 0.756527 -5.120106 -5.784007 7.937253 -6.478870 -1.065156 6.226149 7.311834 17.182073 14.806865 -3.227654 -47.328060 -2.991090 -44.964439 -35.345562 -4.068573 15.973308 15.927371 -5.398598 12.712648 12.336357 -11.569466 -26.364847 49.935974 -16.412200 -28.548551 36.766980 -1.757908 -11.364556 -5.251966 -7.798357 54.247842 26.803698 -20.796518 -7.348968 0.000000 1.154782 0.000000 -7.687390 38.170098 -9.311407 0.000000 -14.051972 0.000000 -15.730710 8.019349 -13.199393 0.000000 7.135554 0.000000 -16.919824 -11.310401 16.927048 0.000000 -4.979954 0.000000
-109.937134 93.913129 87.374408 47.085162 3.821088 7.243653 7.960712 0.451850 0.292751 6.318831 0.366189 -2.224178 1.587047 0.549621 -4.633333 -0.155079 0.353736 -5.208385 -6.449100 8.959623 -6.235353 -1.379262 6.013942 6.808607 15.428936 15.302959 -5.168284 -45.059081 0.040555 -44.542486 -36.908713 -0.936940 14.180613 15.908295 -8.450710 15.297004 12.425487 -11.263650 -24.276960 53.351174 -18.958029 -30.140356 35.603189 -1.903282 -12.890203 -5.262680 -4.991689 52.226596 26.917682 -20.201179 -7.410870 0.000000 0.591002 0.000000 -7.273262 37.888155 -9.110012 0.000000 -13.958199 0.000000 -15.829711 7.987428 -13.588716 0.000000 6.875692 0.000000 -16.400010 -11.115852 16.922983 0.000000 -4.994630 0.000000
-109.751038 93.918744 87.346838 46.582505 3.766855 7.438376 8.109740 0.628839 0.260926 6.463580 0.510745 -2.334275 1.858864 0.523376 -4.739673 0.218307 0.040940 -5.152641 -7.454093 9.606900 -6.838732 -1.587032 6.390473 7.415412 13.710931 15.546359 -6.578570 -44.551363 3.427149 -44.308285 -37.780620 0.262509 12.689092 16.582584 -10.263619 16.265625 12.834297 -11.212596 -22.992470 55.373043 -21.112569 -30.973007 35.730060 -2.809792 -14.533596 -5.215084 -3.313433 50.619946 27.117283 -19.611851 -7.501133 0.000000 0.268419 0.000000 -6.855811 37.501742 -8.858849 0.000000 -13.868417 0.000000 -15.984907 8.087612 -14.079306 0.000000 6.531902 0.000000 -15.843423 -11.051896 17.099311 0.000000 -4.934769 0.000000
-109.586316 93.902264 87.332068 46.108025 3.779906 7.579017 8.170327 0.957157 0.064246 6.681045 0.380321 -2.137257 2.307672 0.396020 -4.766856 0.648667 0.188291 -4.967090 -9.071873 9.388752 -8.368165 -1.808993 7.599261 8.830526 12.355406 15.570145 -7.509960 -45.988490 6.780542 -44.773212 -38.091526 -0.843684 12.427188 17.726895 -8.918589 15.547579 13.193772 -11.500697 -22.905220 56.159790 -22.966292 -30.934762 37.209123 -4.937286 -16.209158 -5.255098 -2.382933 49.500779 27.150722 -19.279313 -7.524393 0.000000 0.207254 0.000000 -6.248291 36.949465 -8.530436 0.000000 -13.732181 0.000000 -15.981748 8.179683 -14.443600 0.000000 6.191028 0.000000 -15.440684 -11.056424 17.204060 0.000000 -4.838437 0.000000
-109.433301 93.872064 87.319812 45.611743 3.845078 7.752627 8.546428 0.875662 0.065336 6.912202 0.708664 -2.231052 2.552595 0.513544 -4.700099 0.872058 0.196192 -4.833227 -10.864125 9.049681 -10.098598 -2.055298 8.397242 10.692422 11.506176 15.574535 -7.759224 -47.924883 9.018994 -45.544151 -37.931195 -2.234728 12.142447 17.891388 -6.366782 14.395587 13.653356 -11.509390 -23.311922 55.802528 -24.542701 -30.723045 39.388687 -7.136429 -17.953370 -5.653029 -2.650513 49.575827 27.343621 -19.027364 -7.618383 0.000000 0.295879 0.000000 -5.789602 36.270880 -8.327558 0.000000 -13.491451 0.000000 -15.884898 8.211802 -14.804911 0.000000 5.878884 0.000000 -15.109750 -11.152930 17.207849 0.000000 -4.770312 0.000000
-109.278040 93.820074 87.305927 45.195656 3.946031 7.931316 8.920787 0.925067 0.094389 7.198154 0.899985 -2.323789 2.780317 0.603326 -4.772671 1.124943 0.120559 -4.621400 -12.493083 8.715364 -11.358636 -2.422260 9.005001 11.687226 11.361072 15.899124 -7.567565 -49.327662 9.098212 -45.999143 -37.318343 -2.084529 10.760456 17.242856 -2.741206 13.128111 13.768739 -11.302458 -24.204294 54.969293 -26.245042 -30.100714 41.785726 -8.768297 -19.520892 -6.512239 -4.372110 50.672359 27.479840 -18.906821 -7.754667 0.000000 0.548864 0.000000 -5.285567 35.465266 -8.080720 0.000000 -13.167964 0.000000 -15.938737 8.192171 -15.169269 0.000000 5.568387 0.000000 -14.721937 -11.314228 17.205434 0.000000 -4.582819 0.000000
-109.151685 93.775269 87.285876 44.871805 4.123032 8.010130 9.275339 0.875578 0.131318 7.529599 1.190022 -2.356733 2.897215 0.584363 -4.678931 1.004982 0.134408 -4.761132 -13.581944 8.413006 -12.244262 -2.696041 9.220399 12.432148 11.714764 15.765250 -7.097452 -48.902782 7.842932 -46.464471 -37.430304 0.385913 8.232285 16.770986 -0.226400 12.566137 14.229389 -11.103172 -25.003104 53.684009 -27.413967 -29.579000 43.471661 -9.427440 -20.775210 -7.161808 -7.332181 52.874162 27.738233 -18.975491 -7.909751 0.000000 0.885975 0.000000 -5.022164 34.700365 -7.816782 0.000000 -12.978163 0.000000 -15.729829 8.082328 -15.332566 0.000000 5.449025 0.000000 -14.627312 -11.430128 17.343261 0.000000 -4.551790 0.000000
